<svg width="8" height="16" viewBox="0 0 8 16" fill="none" xmlns="http://www.w3.org/2000/svg">
<path d="M7.344 0.776693C7.50234 0.776693 7.66067 0.835026 7.78567 0.960026C8.02734 1.20169 8.02734 1.60169 7.78567 1.84336L2.35234 7.27669C1.95234 7.67669 1.95234 8.32669 2.35234 8.72669L7.78567 14.16C8.02734 14.4017 8.02734 14.8017 7.78567 15.0434C7.544 15.285 7.144 15.285 6.90234 15.0434L1.469 9.61003C1.044 9.18503 0.802336 8.61003 0.802336 8.00169C0.802336 7.39336 1.03567 6.81836 1.469 6.39336L6.90234 0.960026C7.02734 0.843359 7.18567 0.776693 7.344 0.776693Z" fill="#F9F9F9"/>
</svg>
