<svg width="20" height="20" viewBox="0 0 20 20" fill="none" xmlns="http://www.w3.org/2000/svg">
<path d="M18.6 9.99999C18.6 14.7496 14.7497 18.6 10 18.6C5.25038 18.6 1.40002 14.7496 1.40002 9.99999C1.40002 5.25035 5.25038 1.39999 10 1.39999C14.7497 1.39999 18.6 5.25035 18.6 9.99999ZM10.0204 5.76948C9.34528 5.31943 8.47728 5.27747 7.76194 5.66031C7.04659 6.04315 6.60002 6.78865 6.60002 7.6V12.4C6.60002 13.2113 7.04659 13.9568 7.76194 14.3397C8.47728 14.7225 9.34528 14.6806 10.0204 14.2305L13.6204 11.8305C14.2324 11.4225 14.6 10.7356 14.6 10C14.6 9.26442 14.2324 8.57751 13.6204 8.16949L10.0204 5.76948Z" fill="white" stroke="white" stroke-width="2"/>
</svg>
