<svg width="22" height="22" viewBox="0 0 22 22" fill="none" xmlns="http://www.w3.org/2000/svg">
<path d="M1.40002 11.6C1.40002 10.6059 2.20591 9.79999 3.20002 9.79999C4.19414 9.79999 5.00002 10.6059 5.00002 11.6V18.8C5.00002 19.7941 4.19414 20.6 3.20002 20.6C2.20591 20.6 1.40002 19.7941 1.40002 18.8V11.6Z" fill="#111827"/>
<path d="M6.20002 11.4V17.9167C6.20002 18.8258 6.71363 19.6568 7.52671 20.0633L7.58653 20.0932C8.25303 20.4265 8.98797 20.6 9.73315 20.6H16.2325C17.3765 20.6 18.3615 19.7925 18.5859 18.6707L20.0259 11.4707C20.3229 9.98557 19.187 8.59999 17.6725 8.59999H13.4V3.79999C13.4 2.47451 12.3255 1.39999 11 1.39999C10.3373 1.39999 9.80002 1.93725 9.80002 2.59999V3.39999C9.80002 4.43857 9.46317 5.44913 8.84002 6.27999L7.16002 8.51999C6.53688 9.35086 6.20002 10.3614 6.20002 11.4Z" fill="#111827"/>
<path d="M1.40002 11.6C1.40002 10.6059 2.20591 9.79999 3.20002 9.79999C4.19414 9.79999 5.00002 10.6059 5.00002 11.6V18.8C5.00002 19.7941 4.19414 20.6 3.20002 20.6C2.20591 20.6 1.40002 19.7941 1.40002 18.8V11.6Z" stroke="white" stroke-width="2"/>
<path d="M6.20002 11.4V17.9167C6.20002 18.8258 6.71363 19.6568 7.52671 20.0633L7.58653 20.0932C8.25303 20.4265 8.98797 20.6 9.73315 20.6H16.2325C17.3765 20.6 18.3615 19.7925 18.5859 18.6707L20.0259 11.4707C20.3229 9.98557 19.187 8.59999 17.6725 8.59999H13.4V3.79999C13.4 2.47451 12.3255 1.39999 11 1.39999C10.3373 1.39999 9.80002 1.93725 9.80002 2.59999V3.39999C9.80002 4.43857 9.46317 5.44913 8.84002 6.27999L7.16002 8.51999C6.53688 9.35086 6.20002 10.3614 6.20002 11.4Z" stroke="white" stroke-width="2"/>
</svg>
