<svg width="112" height="56" viewBox="0 0 112 56" fill="none" xmlns="http://www.w3.org/2000/svg">
<path fill-rule="evenodd" clip-rule="evenodd" d="M4.94102 12.9992H25.8796V43.0009H4.94102V12.9992ZM7.95897 39.9807H22.8512V16.0207H7.95897V39.9807V39.9807Z" fill="#FFCD1A"/>
<path fill-rule="evenodd" clip-rule="evenodd" d="M39.7881 26.4597H38.4929C36.7916 24.0565 35.1042 21.6684 33.4192 18.9695H33.407V26.4597H31.9753V16.016H33.2716C34.9729 18.4024 36.658 20.7736 38.3273 23.4586H38.3569V16.016H39.7886V26.4597H39.7881ZM43.1912 22.3262C43.6067 20.9532 44.025 19.6853 44.3987 18.0735H44.4289C44.8461 19.6853 45.2197 20.9537 45.6072 22.3262H43.1912V22.3262ZM43.8757 16.016L40.2674 26.4597H41.8188L42.7264 23.6091H45.8762L46.6961 26.4597H48.6966L45.3684 16.016H43.8757V16.016ZM50.3811 26.4597V17.4169H47.6351V16.016H54.915V17.4169H52.1713V26.4597H50.3811ZM55.4955 16.016H57.2735V26.4597H55.4955V16.016ZM62.7934 25.1448C60.9265 25.1448 60.2705 23.0862 60.2705 21.0868C60.2705 19.163 61.016 17.3274 62.7934 17.3274C64.5685 17.3274 65.3116 19.163 65.3116 21.0868C65.3116 23.0862 64.6568 25.1448 62.7934 25.1448ZM62.7934 26.6364C65.5226 26.6364 67.2227 24.2058 67.2227 21.0862C67.2227 18.163 65.3459 15.8359 62.7934 15.8359C60.2432 15.8359 58.3583 18.163 58.3583 21.0862C58.3588 24.2064 60.0619 26.6364 62.7934 26.6364ZM76.129 26.4597H74.8321C73.1296 24.0565 71.4434 21.6684 69.7595 18.9695H69.745V26.4597H68.3151V16.016H69.612C71.3109 18.4024 72.9971 20.7736 74.6653 23.4586H74.6961V16.016H76.1295V26.4597H76.129ZM79.5304 22.3262C79.9493 20.9532 80.3648 19.6853 80.7401 18.0735H80.7698C81.1875 19.6853 81.5594 20.9537 81.9464 22.3262H79.5304ZM80.2184 16.016L76.6083 26.4597H78.1609L79.0685 23.6091H82.2177L83.0382 26.4597H85.0364L81.7087 16.016H80.2184ZM85.5564 16.016H87.335V25.0565H90.8689V26.4597H85.5564V16.016ZM38.6876 35.1952V39.5054C37.7317 39.8801 36.7318 40.1468 35.7202 40.1468C32.6458 40.1468 30.7069 37.7599 30.7069 34.6862C30.7069 31.8356 32.6458 29.3452 35.7788 29.3452C36.7469 29.3452 37.7172 29.7049 38.3145 30.1517L37.7323 31.3899C37.2559 31.0941 36.5081 30.8402 35.823 30.8402C33.9148 30.8402 32.6156 32.3475 32.6156 34.7199C32.6156 37.1945 34.1083 38.6553 35.6452 38.6553C36.1205 38.6553 36.5255 38.5983 36.9003 38.4025V35.1952H38.6876V35.1952ZM45.0907 30.9297H42.1035V33.7925H45.0273V35.1952H42.1035V38.5646H45.6241V39.969H40.3122V29.5247H45.0907V30.9297ZM50.61 38.6547C48.7431 38.6547 48.086 36.5978 48.086 34.5973C48.086 32.6746 48.832 30.8396 50.61 30.8396C52.384 30.8396 53.1283 32.6746 53.1283 34.5973C53.1283 36.5978 52.4705 38.6547 50.61 38.6547ZM50.61 40.1468C53.3386 40.1468 55.0382 37.7152 55.0382 34.5967C55.0382 31.6734 53.1597 29.3446 50.61 29.3446C48.0557 29.3446 46.1784 31.6734 46.1784 34.5967C46.1778 37.7157 47.8756 40.1468 50.61 40.1468V40.1468ZM63.6301 35.1952V39.5054C62.6743 39.8801 61.6772 40.1468 60.6615 40.1468C57.5895 40.1468 55.6489 37.7599 55.6489 34.6862C55.6489 31.8356 57.5895 29.3452 60.7225 29.3452C61.6929 29.3452 62.6609 29.7049 63.2565 30.1517L62.6743 31.3899C62.1967 31.0941 61.4552 30.8402 60.7679 30.8402C58.8556 30.8402 57.5576 32.3475 57.5576 34.7199C57.5576 37.1945 59.0509 38.6553 60.5877 38.6553C61.0665 38.6553 61.4674 38.5983 61.8416 38.4025V35.1952H63.6301V35.1952ZM67.0652 30.9297H67.8537C68.9101 30.9297 69.5085 31.5386 69.5085 32.6142C69.5085 34.0151 68.6596 34.6408 67.8084 34.6856C67.6288 34.7036 67.2105 34.7187 67.0652 34.7315V30.9297V30.9297ZM71.5991 39.969L69.4917 35.6443C70.6404 35.0342 71.3005 33.7925 71.3005 32.5392C71.3005 30.5084 70.0599 29.5247 68.0606 29.5247H65.271V39.969H67.0652V36.0307H67.87L69.5527 39.969H71.5991V39.969ZM74.552 35.8361C74.9686 34.4613 75.3864 33.1946 75.7606 31.5834H75.7902C76.208 33.1946 76.5798 34.4613 76.968 35.8361H74.552ZM75.2371 29.5247L71.6259 39.969H73.1773L74.0883 37.1184H77.2376L78.0534 39.969H80.0562L76.7274 29.5247H75.2371V29.5247ZM83.4118 29.5247H80.6222V39.969H82.413V36.0307H83.2165C85.3513 36.0307 86.6505 34.2998 86.6505 32.5392C86.6505 30.5079 85.4112 29.5247 83.4118 29.5247ZM83.1608 34.6862C82.9748 34.703 82.5379 34.717 82.413 34.7292V30.9297H83.2165C84.2607 30.9297 84.8597 31.5386 84.8597 32.6142C84.8597 34.0151 84.012 34.6414 83.1608 34.6862ZM94.9438 39.969H93.1542V34.943H89.4366V39.969H87.6662V29.5247H89.4366V33.538H93.1542V29.5544H94.9438V39.969ZM96.6579 29.5247H98.437V39.969H96.6579V29.5247ZM106.49 31.4207C106.056 31.1517 105.343 30.8396 104.654 30.8396C102.831 30.8396 101.508 32.3469 101.508 34.7193C101.508 37.194 102.969 38.6547 104.7 38.6547C105.334 38.6517 105.954 38.4705 106.49 38.1318L106.984 39.431C106.443 39.8034 105.492 40.1468 104.627 40.1468C101.553 40.1468 99.6125 37.7599 99.6125 34.6862C99.6125 31.8356 101.536 29.3452 104.654 29.3452C105.581 29.3452 106.443 29.7357 107.059 30.1517L106.49 31.4207V31.4207Z" fill="#F9F9F9"/>
</svg>
