<svg width="96" height="96" viewBox="0 0 96 96" fill="none" xmlns="http://www.w3.org/2000/svg">
<path fill-rule="evenodd" clip-rule="evenodd" d="M2.82339 40.4482V46.7484H21.2523C23.3944 46.7484 26.1311 44.7677 26.1311 41.4911C26.1311 40.1733 26.6351 39.3137 25.0862 37.5705L22.729 34.7775C21.3783 33.5175 22.8904 33.5175 24.0249 33.5175H31.8058V46.7484H37.9765V33.5175H46.2932V27.8513H19.3623C16.0857 27.8513 14.4835 30.9974 14.5736 32.6355C14.6643 34.2735 14.9656 36.3344 17.6884 38.8102C20.1721 41.0678 16.4587 40.4482 16.0857 40.4482H2.82339V40.4482ZM59.938 27.8513H49.9832L44.4027 46.7489H50.6132L51.6208 44.1028H58.173L59.1456 46.7489H65.2292L59.938 27.8513V27.8513ZM53.0073 39.5662L55.1494 32.6355L57.1659 39.5662H53.0073V39.5662ZM84.8873 40.4482C82.4932 40.4482 82.4932 39.5662 82.4932 39.5662C84.5446 39.5662 86.3635 36.5775 86.3635 33.5175C86.3635 30.4575 83.3752 27.8513 80.9802 27.8513H67.5874V46.7489H74.3926V40.4487C74.3926 40.4487 77.2902 43.8508 78.8022 45.2369C80.3148 46.6229 80.4403 46.7489 82.4927 46.7489H93.1751V40.4487C93.1761 40.4482 87.2813 40.4482 84.8873 40.4482V40.4482ZM78.7126 36.0381H74.3936V32.6355H78.7126C80.6928 32.6355 81.0354 36.0381 78.7126 36.0381ZM2.82339 49.1425H9.78548L11.5495 55.4437L13.1876 49.1425H20.4963L22.3864 55.4437L24.2769 49.1425H30.3251L24.7804 68.0446H19.2363L16.8068 59.0973L14.0696 68.0446H8.39944L2.82339 49.1425ZM44.6134 49.2516H34.6585L29.0785 68.1487H35.2886L36.2966 65.5031H42.8493L43.822 68.1487H49.906L44.6134 49.2516ZM37.6831 60.9659L39.8252 54.0352L41.8413 60.9659H37.6831ZM85.0128 54.8137C83.8797 54.8137 82.6441 54.9461 83.9953 56.2057L86.353 58.9992C87.9014 60.7423 87.8765 61.469 87.8765 62.7878C87.8765 66.0639 84.6353 68.0446 82.4932 68.0446L67.6038 68.1447C65.5524 68.1447 65.4269 68.0192 63.9144 66.6331C62.4028 65.2471 59.5042 61.8445 59.5042 61.8445V68.1447H52.7V49.2476H66.0928C68.4868 49.2476 71.4761 51.8543 71.4761 54.9138C71.4761 57.9742 69.6572 60.9624 67.6048 60.9624C67.6048 60.9624 68.5073 61.8699 70.0193 61.8699C71.5319 61.8699 77.3539 61.8759 77.3539 61.8759C77.7265 61.8759 81.4393 62.4954 78.9561 60.2378C76.2333 57.762 75.932 55.7022 75.8414 54.0641C75.7507 52.4261 77.1672 49.143 80.4423 49.143H93.1771V54.8142H85.0128V54.8137V54.8137ZM63.8237 57.4338H59.5037V54.0312H63.8237C65.8044 54.0312 66.1466 57.4338 63.8237 57.4338Z" fill="#F9F9F9"/>
</svg>
